<svg width="12" height="11" viewBox="0 0 12 11" xmlns="http://www.w3.org/2000/svg">
    <path d="M6.007 10.4a.599.599 0 0 0 .443-.186.615.615 0 0 0 .183-.447v-3.86l3.874-.001c.17 0 .317-.063.44-.19a.62.62 0 0 0 .186-.45.61.61 0 0 0-.186-.446.602.602 0 0 0-.44-.186H6.633V.767c0-.17-.061-.317-.183-.444a.594.594 0 0 0-.443-.189.611.611 0 0 0-.454.19.613.613 0 0 0-.186.443v3.869L1.5 4.634a.613.613 0 0 0-.443.186.604.604 0 0 0-.19.447c0 .174.064.324.19.45s.274.189.443.189h3.868v3.861a.61.61 0 0 0 .186.447.617.617 0 0 0 .454.186z" fill="#00BE00" fill-rule="nonzero"/>
</svg>
