<svg width="24" height="24" xmlns="http://www.w3.org/2000/svg">
    <g fill="none" fill-rule="evenodd">
        <rect fill="#EFF2F7" width="24" height="24" rx="9.239"/>
        <path d="M15.16 6C17.576 6 19 7.338 19 9.628h-2.962v.023c-1.374 0-2.489 1.046-2.489 2.337 0 1.29 1.115 2.337 2.49 2.337H19v.21c0 2.26-1.425 3.598-3.84 3.598H8.84c-2.415 0-3.84-1.337-3.84-3.598V9.599C5 7.338 6.425 6 8.84 6zm3.285 4.667c.306 0 .555.229.555.51v1.778c-.004.281-.25.508-.555.512h-2.532c-.74.009-1.386-.457-1.553-1.12a1.337 1.337 0 0 1 .322-1.16 1.593 1.593 0 0 1 1.172-.52zm-2.256.821h-.238a.503.503 0 0 0-.39.19.733.733 0 0 0-.163.47c0 .37.246.67.553.675h.238c.306 0 .554-.299.554-.667 0-.369-.248-.668-.554-.668z" fill="#00BE00"/>
    </g>
</svg>
