<svg width="24" height="24" viewBox="0 0 24 24" fill="none" xmlns="http://www.w3.org/2000/svg">
<path fill-rule="evenodd" clip-rule="evenodd" d="M12 2.75024C17.109 2.75024 21.25 6.89224 21.25 12.0002C21.25 17.1082 17.109 21.2502 12 21.2502C6.892 21.2502 2.75 17.1082 2.75 12.0002C2.75 6.89224 6.892 2.75024 12 2.75024Z" fill="#33CB33" stroke="#33CB33" stroke-width="2" stroke-linecap="round" stroke-linejoin="round"/>
<path d="M8.65079 11.2407C8.23147 10.8813 7.60017 10.9299 7.24074 11.3492C6.88132 11.7685 6.92988 12.3998 7.34921 12.7593L8.65079 11.2407ZM11.5 15L10.8492 15.7593C11.0592 15.9392 11.3342 16.0242 11.6091 15.994C11.884 15.9639 12.1341 15.8212 12.3 15.6L11.5 15ZM16.8 9.6C17.1314 9.15817 17.0418 8.53137 16.6 8.2C16.1582 7.86863 15.5314 7.95817 15.2 8.4L16.8 9.6ZM7.34921 12.7593L10.8492 15.7593L12.1508 14.2407L8.65079 11.2407L7.34921 12.7593ZM12.3 15.6L16.8 9.6L15.2 8.4L10.7 14.4L12.3 15.6Z" fill="white"/>
</svg>
