<svg width="10" height="11" xmlns="http://www.w3.org/2000/svg">
    <path d="M9.524 10.26a.605.605 0 0 0 .291-.165.605.605 0 0 0 .165-.29.698.698 0 0 0 0-.33.588.588 0 0 0-.158-.284L5.914 5.283l3.908-3.907a.588.588 0 0 0 .158-.284.712.712 0 0 0 0-.333.566.566 0 0 0-.165-.288.605.605 0 0 0-.294-.165.698.698 0 0 0-.33 0 .588.588 0 0 0-.28.159L5.002 4.372 1.096.465a.63.63 0 0 0-.29-.159.728.728 0 0 0-.331-.003.562.562 0 0 0-.29.168.63.63 0 0 0-.16.29.698.698 0 0 0 0 .331c.027.11.08.205.16.284L4.09 5.284.184 9.19a.612.612 0 0 0-.162.284.684.684 0 0 0-.003.333.566.566 0 0 0 .165.287c.084.084.18.14.29.166.11.026.221.026.331 0a.63.63 0 0 0 .29-.159l3.908-3.907 3.907 3.907c.08.08.174.132.284.159.11.026.22.026.33 0z" fill="#F57676" fill-rule="evenodd"/>
</svg>
