<svg width="15" height="11" viewBox="0 0 15 11" xmlns="http://www.w3.org/2000/svg">
    <path d="M12.08 5.321c1.61 0 2.92 1.274 2.92 2.84C15 9.726 13.69 11 12.08 11c-1.61 0-2.92-1.274-2.92-2.84 0-1.565 1.31-2.839 2.92-2.839zm1.269 1.645-.054.042-1.668 1.622-.783-.697a.295.295 0 0 0-.41.014.282.282 0 0 0-.027.34l.049.059.988.875a.292.292 0 0 0 .342.038l.06-.045 1.866-1.8a.278.278 0 0 0 0-.406.297.297 0 0 0-.363-.042zM6.277 2.864l6.094.002a.194.194 0 0 1 .176.143l.007.054v1.376c0 .119-.106.21-.228.198a3.67 3.67 0 0 0-.389-.02c-1.957 0-3.543 1.542-3.543 3.446 0 .042 0 .084.002.126a.2.2 0 0 1-.148.2l-.056.007H1.424l-.092-.001c-.542-.033-.946-.28-1.19-.753-.061-.12-.091-.255-.132-.385l-.008-.03L0 7.197V3.063c0-.09.062-.174.152-.193a.146.146 0 0 1 .03-.004l6.095-.002zM2.552 5.336c-.444 0-.6.136-.598.587 0 .416.148.596.574.566a.2.2 0 0 1 .028 0c.453.031.59-.15.59-.574 0-.433-.153-.58-.594-.579zM11.21.003c.58.03.994.304 1.234.817.048.102.07.215.102.323a.196.196 0 0 1 .008.055v.703c0 .09-.062.173-.153.193a.147.147 0 0 1-.03.003c-4.063.004-8.125.004-12.188 0a.147.147 0 0 1-.03-.003A.196.196 0 0 1 0 1.9v-.705c0-.017.002-.034.007-.05.02-.072.037-.145.06-.215C.258.356.777 0 1.43 0h9.425c.118 0 .237-.004.355.002z" fill="#647081" fill-rule="evenodd"/>
</svg>
