<svg width="24" height="24" xmlns="http://www.w3.org/2000/svg">
    <g fill="none" fill-rule="evenodd">
        <rect fill="#EFF2F7" width="24" height="24" rx="9.239"/>
        <path d="M10.625 11c.483 0 .875.392.875.875v5.25a.876.876 0 0 1-.875.875h-3.75A.876.876 0 0 1 6 17.125v-5.25c0-.483.392-.875.875-.875zm6.5 3c.483 0 .875.392.875.875v2.25a.876.876 0 0 1-.875.875h-3.75a.876.876 0 0 1-.875-.875v-2.25c0-.483.392-.875.875-.875zm0-8c.483 0 .875.392.875.875v5.25a.876.876 0 0 1-.875.875h-3.75a.876.876 0 0 1-.875-.875v-5.25c0-.483.392-.875.875-.875zm-6.5 0c.483 0 .875.392.875.875v2.25a.876.876 0 0 1-.875.875h-3.75A.876.876 0 0 1 6 9.125v-2.25C6 6.392 6.392 6 6.875 6z" fill="#647081" fill-rule="nonzero"/>
    </g>
</svg>
