<svg width="7" height="12" viewBox="0 0 7 12" xmlns="http://www.w3.org/2000/svg">
    <path d="M5.826 9.602C6.474 9.6 7.001 10.14 7 10.805c-.001.661-.52 1.194-1.165 1.195-.646.001-1.163-.529-1.165-1.193-.002-.664.514-1.202 1.156-1.205zm-4.655 0c.642.002 1.16.537 1.159 1.201 0 .665-.515 1.196-1.161 1.197C.524 12 .002 11.469 0 10.808c-.002-.666.523-1.207 1.17-1.206zm.002-4.804c.643.006 1.159.543 1.157 1.206-.002.661-.524 1.2-1.164 1.198C.52 7.202-.004 6.655 0 5.99c.004-.657.536-1.197 1.173-1.19zm4.654 0c.643-.005 1.174.54 1.173 1.206-.002.658-.527 1.198-1.167 1.198-.639 0-1.161-.538-1.163-1.199-.001-.662.515-1.2 1.157-1.205zM1.172 0c.646.003 1.16.535 1.158 1.2-.001.669-.527 1.204-1.177 1.198C.514 2.392-.004 1.848 0 1.188A1.18 1.18 0 0 1 1.172 0zM5.84 0C6.484.003 7 .538 7 1.2c-.001.664-.531 1.203-1.179 1.198-.64-.006-1.155-.546-1.15-1.21C4.673.524 5.192-.003 5.84 0z" fill="#A5AEB8" fill-rule="evenodd"/>
</svg>
