<svg width="60" height="49" viewBox="0 0 60 49" xmlns="http://www.w3.org/2000/svg" xmlns:xlink="http://www.w3.org/1999/xlink">
    <defs>
        <path id="2dzj5wc3ja" d="M0 0h60v22.618H0z"/>
        <path id="augsnv0hwc" d="M0 49h60V0H0z"/>
    </defs>
    <g fill="none" fill-rule="evenodd">
        <mask id="u0qgh42imb" fill="#fff">
            <use xlink:href="#2dzj5wc3ja"/>
        </mask>
        <path d="M60 16.023c-.21.687-.354 1.403-.639 2.056-2.136 4.89-8.36 6.073-12.152 2.326-.095-.095-.196-.185-.338-.319-1.528 1.612-3.375 2.52-5.6 2.526-2.229.005-4.084-.885-5.645-2.535-1.54 1.628-3.39 2.53-5.615 2.535-2.228.004-4.082-.89-5.638-2.536-1.544 1.636-3.397 2.533-5.622 2.536-2.227.003-4.08-.896-5.493-2.389-1.052.649-1.978 1.402-3.035 1.841-4.64 1.93-9.875-1.411-10.216-6.45a2.917 2.917 0 0 1 .547-1.937C3.545 9.46 6.546 5.248 9.536 1.03 10.028.334 10.66 0 11.518 0 23.844.009 36.17.008 48.495 0c.834 0 1.458.323 1.938 1 3.002 4.234 6.016 8.46 9.012 12.699.241.342.372.762.555 1.146v1.178z" fill="#EFF2F7" mask="url(#u0qgh42imb)"/>
        <mask id="ewkubkmy3d" fill="#fff">
            <use xlink:href="#augsnv0hwc"/>
        </mask>
        <path d="M11.27 42.421H26.2V31.186H11.27v11.235zm44.98-15.668V45.74c0 2.748-1.504 4.26-4.236 4.26L48.765 50V31.2H37.508V50H7.935c-2.658 0-4.191-1.531-4.192-4.188V26.696c.676.154 1.306.336 1.95.438 2.437.387 4.784.106 6.99-1.056.308-.162.544-.169.862-.013 3.467 1.706 6.945 1.706 10.41-.005.323-.16.559-.132.864.018 3.45 1.69 6.91 1.688 10.358-.006.343-.168.596-.14.917.016 3.433 1.674 6.873 1.673 10.307.002.293-.142.532-.213.863-.04 2.763 1.432 5.632 1.743 8.612.765.105-.034.221-.037.374-.062z" fill="#EFF2F7" mask="url(#ewkubkmy3d)"/>
    </g>
</svg>
