<svg width="26" height="27" viewBox="0 0 26 27" xmlns="http://www.w3.org/2000/svg" xmlns:xlink="http://www.w3.org/1999/xlink">
    <defs>
        <path id="a" d="M0 0h12v11.2H0z"/>
    </defs>
    <g transform="translate(0 .167)" fill="none" fill-rule="evenodd">
        <circle fill="#E2FEE5" cx="13" cy="13" r="13"/>
        <g transform="translate(7 6.833)">
            <mask id="b" fill="#fff">
                <use xlink:href="#a"/>
            </mask>
            <path d="M6.602 11.194V7.125c.037.03.066.048.09.073.216.222.43.447.647.669.265.27.633.28.877.024.24-.251.232-.63-.025-.9a380.346 380.346 0 0 0-1.74-1.803c-.28-.289-.629-.289-.908 0-.578.596-1.155 1.194-1.73 1.793-.265.276-.278.654-.036.909.246.26.614.247.887-.033.235-.242.468-.488.724-.757v4.094H1.273c-.765 0-1.272-.52-1.272-1.31v-8.57C0 .521.506 0 1.27 0h10.052c.433 0 .67.244.672.69v.556h-.192c-3.3 0-6.598 0-9.898.002a.991.991 0 0 0-.304.036.606.606 0 0 0-.396.66c.044.307.266.522.558.538.06.004.121.003.182.003 3.112 0 6.224 0 9.336.002.102 0 .208.006.305.035.258.08.408.314.408.627.002.996.001 1.991.001 2.987 0 1.24-.016 2.478.006 3.717.013.778-.556 1.36-1.306 1.347-1.307-.022-2.615-.006-3.922-.006h-.17z" fill="#00BE00" mask="url(#b)"/>
        </g>
    </g>
</svg>
