<svg width="47" height="47" viewBox="0 0 47 47" xmlns="http://www.w3.org/2000/svg" xmlns:xlink="http://www.w3.org/1999/xlink">
    <defs>
        <rect id="ujk3aqra0a" x="0" y="0" width="47" height="47" rx="10.846"/>
    </defs>
    <g fill="none" fill-rule="evenodd">
        <mask id="lgf0c7q4gb" fill="#fff">
            <use xlink:href="#ujk3aqra0a"/>
        </mask>
        <use fill="#00ADEE" xlink:href="#ujk3aqra0a"/>
        <path d="M13.046 36.576c-7.239 0-9.378-5.686-5.8-8.796 1.192-1.05 3.375-1.564 4.537-1.68 4.3-.423 8.28 1.213 12.977 3.498-3.302 4.295-7.507 6.978-11.714 6.978m25.735-6.547c-1.862-.62-4.36-1.572-7.142-2.575 1.672-2.898 3.005-6.196 3.882-9.78h-9.17V14.38h11.234V12.54H26.35V7.05h-4.586c-.805 0-.805.791-.805.791l.001 4.7H9.598v1.839h11.363v3.294H11.58v1.838h18.194a32.282 32.282 0 0 1-2.62 6.385c-5.904-1.942-12.204-3.516-16.162-2.547-2.53.622-4.16 1.732-5.119 2.893-4.396 5.334-1.243 13.434 8.04 13.434 5.489 0 10.776-3.052 14.874-8.08C34.9 34.527 47 39.557 47 39.557v-7.17s-1.519-.12-8.219-2.358" fill="#FFF" mask="url(#lgf0c7q4gb)"/>
    </g>
</svg>
