<svg xmlns="http://www.w3.org/2000/svg" width="18" height="18" viewBox="0 0 18 18">
    <g fill="none" fill-rule="evenodd">
        <g fill="#647081">
            <g>
                <g>
                    <path d="M12.858 13.467c.149-.036.28-.11.392-.223.113-.113.188-.244.223-.393.036-.148.036-.297 0-.446-.035-.148-.107-.276-.214-.383L7.984 6.747l5.275-5.274c.107-.107.179-.235.214-.384.036-.149.036-.299 0-.45-.035-.152-.11-.281-.223-.388-.113-.113-.245-.187-.397-.223-.151-.036-.3-.036-.445 0-.146.036-.272.107-.38.214L6.755 5.517 1.479.242C1.366.135 1.235.064 1.087.028.938-.008.79-.01.64.023.492.056.361.132.249.251.142.364.07.495.035.643c-.036.149-.036.297 0 .446.035.149.107.277.214.384l5.274 5.275L.25 12.022c-.107.107-.18.235-.219.383-.039.149-.04.3-.004.45.035.152.11.282.223.389.113.113.243.187.392.223.149.035.297.035.446 0 .148-.036.28-.107.392-.214l5.275-5.275 5.275 5.275c.107.107.234.178.383.214.149.035.297.035.446 0z" transform="translate(-1121.000000, -230.000000) translate(770.000000, 213.000000) translate(351.000000, 17.000000) translate(2.295820, 2.056864)"/>
                </g>
            </g>
        </g>
    </g>
</svg>
