<svg width="15" height="15" xmlns="http://www.w3.org/2000/svg">
    <defs>
        <linearGradient x1="100%" y1="0%" x2="0%" y2="100%" id="a">
            <stop stop-color="#00BE00" offset="0%"/>
            <stop stop-color="#00A500" offset="100%"/>
        </linearGradient>
    </defs>
    <path d="M6.875 13.75c.943 0 1.83-.18 2.66-.541a7.04 7.04 0 0 0 3.677-3.678 6.61 6.61 0 0 0 .538-2.656 6.61 6.61 0 0 0-.538-2.656 7.015 7.015 0 0 0-1.488-2.193A7.003 7.003 0 0 0 9.527.538 6.636 6.636 0 0 0 6.867 0c-.933 0-1.814.18-2.644.538a7.003 7.003 0 0 0-2.197 1.488A7.015 7.015 0 0 0 .538 4.22 6.61 6.61 0 0 0 0 6.875c0 .943.18 1.828.541 2.656a7.052 7.052 0 0 0 3.682 3.678c.83.36 1.714.541 2.652.541zm0-1.266c-.773 0-1.5-.145-2.178-.435a5.623 5.623 0 0 1-1.786-1.202 5.545 5.545 0 0 1-1.63-3.972c0-.773.143-1.5.43-2.178A5.616 5.616 0 0 1 4.694 1.7a5.462 5.462 0 0 1 2.175-.435c.783 0 1.512.145 2.189.435a5.647 5.647 0 0 1 2.992 2.996c.29.679.435 1.405.435 2.178a5.383 5.383 0 0 1-.432 2.186 5.702 5.702 0 0 1-1.202 1.786 5.582 5.582 0 0 1-1.782 1.202c-.68.29-1.41.435-2.193.435zm0-4.449c.358 0 .542-.189.552-.566l.099-3.36a.587.587 0 0 0-.184-.463.664.664 0 0 0-.474-.18.665.665 0 0 0-.481.177.587.587 0 0 0-.177.46l.092 3.373c.01.373.2.559.573.559zm0 2.2c.203 0 .38-.069.53-.205a.66.66 0 0 0 .227-.51.667.667 0 0 0-.227-.516.765.765 0 0 0-.53-.205.75.75 0 0 0-.538.209.68.68 0 0 0-.219.512c0 .198.074.367.223.506.149.14.327.209.534.209z" transform="translate(.51 .764)" fill="url(#a)" fill-rule="evenodd"/>
</svg>
