<svg width="24" height="24" viewBox="0 0 24 24" xmlns="http://www.w3.org/2000/svg">
    <g fill="none" fill-rule="evenodd">
        <rect fill="#EFF2F7" width="24" height="24" rx="9.239"/>
        <path d="M12.477 16.018c.823-.31 1.053-1.108.879-1.885-.138-.613-.685-1.022-1.316-1.018-.351.003-.506-.152-.507-.507v-.176a.403.403 0 0 1 .353-.404c.348-.055.538.093.583.455.037.295.32.476.599.383.282-.094.407-.343.314-.679-.136-.492-.417-.867-.917-1.053 0-.058.004-.117 0-.175a.435.435 0 0 0-.328-.403c-.328-.09-.595.114-.604.459-.002.064.019.128-.074.166-.588.24-.846.71-.87 1.324-.031.809.493 1.59 1.428 1.549.281-.012.443.161.45.443a2.18 2.18 0 0 1-.001.206c-.021.297-.178.442-.474.441-.274 0-.439-.158-.46-.44a.45.45 0 0 0-.474-.435.445.445 0 0 0-.457.468c.002.354.116.672.37.914.16.152.355.265.555.41.026.377.178.572.475.571.295 0 .44-.188.476-.614M5.935 9.153h12.126c.002-.046.005-.08.005-.114 0-.23.006-.462-.002-.692a.458.458 0 0 0-.457-.443c-.258-.005-.515-.001-.773-.002h-.458v.414c-.001.332-.179.54-.462.542-.286.002-.47-.214-.471-.55v-.395h-2.976v.435c-.003.3-.196.51-.467.51-.272 0-.464-.21-.466-.51v-.434H8.556v.423c-.002.31-.194.523-.472.52-.273 0-.459-.207-.46-.512-.002-.145 0-.29 0-.441-.436 0-.849-.005-1.261.002a.448.448 0 0 0-.426.427c-.01.269-.003.539-.003.82m1.69-2.2c0-.159-.002-.31 0-.46.003-.285.206-.497.47-.493.257.004.456.213.462.49.003.15 0 .301 0 .461h2.976V6.52c.002-.299.195-.515.462-.519.272-.004.47.216.471.524v.424h2.977v-.434c.002-.294.202-.514.467-.514.27 0 .463.212.466.513v.447h.163c.345 0 .69-.002 1.035 0 .82.008 1.424.618 1.425 1.448a6507.2 6507.2 0 0 1 0 8.126c0 .853-.605 1.461-1.454 1.464-.924.004-1.847.001-2.77.001H6.479c-.669 0-1.196-.355-1.395-.952-.05-.15-.08-.316-.08-.474C5 13.845 5 11.116 5.002 8.388a1.4 1.4 0 0 1 1.414-1.427c.35-.004.7 0 1.05-.001.047 0 .095-.004.158-.007" fill="#00BE00"/>
    </g>
</svg>
