<?xml version="1.0" encoding="UTF-8"?>
<svg width="24px" height="24px" viewBox="0 0 24 24" version="1.1" xmlns="http://www.w3.org/2000/svg" xmlns:xlink="http://www.w3.org/1999/xlink">
    <title>C6515D20-5251-4E8C-8569-68A74F8480AF</title>
    <defs>
        <polygon id="path-1" points="0 0 14 0 14 14 0 14"></polygon>
    </defs>
    <g id="Working" stroke="none" stroke-width="1" fill="none" fill-rule="evenodd">
        <g id="Điều-khoản">
            <rect id="BG/ic/Dieukhoan" fill="#EFF2F7" x="0" y="0" width="24" height="24" rx="9.23875"></rect>
            <g id="Group-3" transform="translate(5.000000, 5.000000)">
                <mask id="mask-2" fill="white">
                    <use xlink:href="#path-1"></use>
                </mask>
                <g id="Clip-2"></g>
                <path d="M6.9183752,4.08346823 C5.29072809,4.15022344 4.01705522,5.50031198 4.08373757,7.08821823 C4.15173241,8.70784323 5.50513972,9.98472344 7.08145345,9.91643698 C8.71296514,9.84570781 9.98674739,8.4953276 9.91594525,6.91146823 C9.84328373,5.28655677 8.4993556,4.01860885 6.9183752,4.08346823 Z M7.79297484,-1.09375e-05 C7.80934464,0.00757239583 7.8250582,0.0178171875 7.84226654,0.0222651042 C8.23310018,0.123619271 8.45899619,0.378134896 8.51948061,0.772759896 C8.56844419,1.09217135 8.60541297,1.41358802 8.63975675,1.73496823 C8.64981926,1.82943177 8.68514741,1.8759526 8.7757829,1.90891094 C8.97634035,1.9818276 9.17387175,2.06455156 9.36753857,2.15442135 C9.44220529,2.18909323 9.48956471,2.1788849 9.54964809,2.13112448 C9.79563265,1.93552552 10.0445703,1.7435724 10.2931799,1.55125469 C10.6992167,1.23702031 11.1493681,1.2596974 11.5130402,1.61702552 C11.8055457,1.90446302 12.0954261,2.1946349 12.3830097,2.48695781 C12.7367652,2.8465099 12.7635985,3.29527552 12.4573483,3.69606198 C12.2609471,3.95302031 12.0585303,4.20545781 11.8655197,4.46493177 C11.838103,4.50179115 11.8289155,4.57448906 11.8452488,4.61787448 C11.9252749,4.83049948 12.0123375,5.0408276 12.1076761,5.24699948 C12.1291136,5.29333802 12.1899626,5.34412448 12.2388533,5.35141615 C12.5494421,5.39775469 12.8615986,5.43417656 13.1736093,5.47059844 C13.4340678,5.50096823 13.6630263,5.59714531 13.8138545,5.81677031 C13.894464,5.93412969 13.9391255,6.0761349 14.0000109,6.20705677 L14.0000109,7.79299427 C13.9922818,7.8093276 13.9817818,7.82500469 13.9772609,7.84217656 C13.8715317,8.24467656 13.6056044,8.46729115 13.1997499,8.52471302 C12.8887965,8.56871823 12.5768223,8.60699948 12.2644835,8.6398849 C12.169947,8.64983802 12.1228428,8.6852026 12.0905772,8.77616615 C12.0237854,8.9645099 11.9497385,9.15128594 11.8628218,9.33098906 C11.8170665,9.4256349 11.8163374,9.48797865 11.8856082,9.57216094 C12.082374,9.81121823 12.2698794,10.0580411 12.4578587,10.3042078 C12.7632339,10.7040828 12.736036,11.1536505 12.3824628,11.5135672 C12.095098,11.8060359 11.8046707,12.095588 11.5126392,12.3834995 C11.15429,12.7367078 10.7026802,12.7633224 10.3036799,12.4568172 C10.0508412,12.2625307 9.79876807,12.0672599 9.54913767,11.8689266 C9.48905429,11.8211661 9.44140321,11.8109214 9.36695523,11.8452651 C9.16902279,11.9366661 8.96748096,12.0215047 8.76280372,12.0964995 C8.68044428,12.1266141 8.6502203,12.1691245 8.64161613,12.251812 C8.61609527,12.4962651 8.58517858,12.7402443 8.55294939,12.9839682 C8.52319937,13.2088797 8.50701185,13.4367443 8.36599091,13.6319786 C8.22190747,13.8314786 8.02069377,13.9346193 7.79297484,14.0000255 L6.2070361,14.0000255 C6.19066629,13.9924057 6.17502566,13.982088 6.15785377,13.9775672 C5.76785867,13.8753745 5.54075954,13.6219526 5.48045741,13.226963 C5.43167612,12.9074786 5.39478026,12.586062 5.36010835,12.2646818 C5.34997293,12.1708745 5.31613957,12.1226036 5.22459262,12.0896818 C5.02808205,12.0189891 4.83488919,11.9375776 4.64497759,11.8504786 C4.56925357,11.8157703 4.51781082,11.8150047 4.45072744,11.8688901 C4.20208141,12.068463 3.94993538,12.2638068 3.69603935,12.4567078 C3.29353903,12.7624839 2.84408035,12.7348484 2.48667903,12.382187 C2.19472046,12.0941297 1.90484003,11.8039214 1.61656376,11.5121818 C1.26284474,11.1542339 1.23597492,10.7052495 1.543246,10.3036245 C1.73975657,10.0467026 1.94188173,9.7940099 2.13474646,9.53446302 C2.16209023,9.49771302 2.17094961,9.42505156 2.15461627,9.38173906 C2.07451725,9.16915052 1.98749114,8.95874948 1.89211606,8.75261406 C1.87075146,8.70631198 1.80972016,8.65585365 1.76075658,8.64856198 C1.45013134,8.60218698 1.13793839,8.56591094 0.825927729,8.52923385 C0.581109829,8.50043177 0.35896903,8.41599427 0.212041832,8.21394219 C0.120823011,8.08852552 0.0693073458,7.93430677 0,7.79299427 L0,6.17971302 C0.00882292356,6.1649474 0.0212552249,6.15131198 0.0259583536,6.13537969 C0.141458444,5.74327031 0.407130526,5.52736406 0.807516256,5.47384323 C1.11868837,5.43228073 1.43022508,5.3927599 1.74234511,5.35936406 C1.8316681,5.34977552 1.87538167,5.31481198 1.90666295,5.23008281 C1.98056405,5.02992656 2.06139224,4.8317026 2.15188189,4.63858281 C2.18921525,4.55903073 2.17754858,4.50933802 2.12661624,4.44546302 C1.92799109,4.19627031 1.73261073,3.94448906 1.53919912,3.69124948 C1.23509992,3.29308802 1.26576141,2.84056719 1.62031897,2.48331198 C1.90582441,2.19561927 2.19260588,1.9092026 2.48026235,1.6236974 C2.84335118,1.26334323 3.2897109,1.23392135 3.69826331,1.54491094 C3.95544059,1.74065573 4.20791475,1.94259844 4.4666962,2.13615573 C4.50125872,2.16200469 4.56812336,2.17425469 4.60735256,2.15937969 C4.82810794,2.07567135 5.04652998,1.98510885 5.26185307,1.88827552 C5.3016656,1.87033802 5.34403022,1.81608802 5.35059272,1.77324948 C5.387124,1.53499427 5.41129589,1.29487969 5.44297821,1.0558224 C5.47451469,0.817858854 5.48308241,0.574171354 5.63420232,0.367671354 C5.77875972,0.170067187 5.97745779,0.0623328125 6.2070361,-1.09375e-05 L7.79297484,-1.09375e-05 Z" id="Fill-1" fill="#647081" mask="url(#mask-2)"></path>
            </g>
        </g>
    </g>
</svg>