<svg width="15" height="21" viewBox="0 0 15 21" xmlns="http://www.w3.org/2000/svg">
    <path d="M8.732 16.672c-.011-.07-.017-.122-.027-.172-.122-.576-.241-1.153-.368-1.729-.03-.133-.017-.218.104-.314.384-.305.573-.716.548-1.205a1.483 1.483 0 0 0-1.207-1.394 1.5 1.5 0 0 0-1.64.85c-.287.633-.107 1.332.448 1.786.05.041.089.141.078.205-.05.296-.12.59-.18.885l-.226 1.088h2.47zm2.306-8.333c.005-.054.011-.098.011-.142 0-.905.003-1.81-.002-2.716 0-.183-.015-.368-.047-.548-.354-1.97-2.088-3.213-4.076-2.926-1.534.221-2.85 1.579-2.937 3.115-.06 1.052-.025 2.11-.031 3.166 0 .017.014.035.022.051h7.06zM7.066 0h.87c.05.011.1.028.152.034 2.732.287 4.848 2.555 4.915 5.289.023.924.007 1.85.009 2.776v.251h.689c.825 0 1.298.47 1.298 1.295v9.234c0 .812-.476 1.284-1.29 1.284H6.888c-1.885 0-3.77-.002-5.655 0-.332.001-.623-.095-.865-.322-.278-.26-.369-.59-.368-.962.003-2.1.001-4.2.001-6.3V9.626c.003-.798.483-1.275 1.28-1.276h.709c0-.13-.002-.24 0-.35.016-1.075-.068-2.164.069-3.224C2.34 2.59 3.604 1.106 5.667.324 6.111.156 6.598.104 7.066 0z" fill="#647081" fill-rule="evenodd"/>
</svg>
