<svg width="15" height="8" viewBox="0 0 15 8" fill="none" xmlns="http://www.w3.org/2000/svg">
<path fill-rule="evenodd" clip-rule="evenodd" d="M7.68759 7.93029C7.80665 7.93029 7.91895 7.90864 8.02448 7.86535C8.13001 7.82205 8.22337 7.7517 8.30455 7.65428L14.1981 1.63083C14.3605 1.47388 14.4417 1.28447 14.4417 1.06258C14.4417 0.911046 14.4051 0.773043 14.3321 0.648569C14.259 0.524095 14.1616 0.425328 14.0398 0.352267C13.918 0.279206 13.7787 0.242676 13.6217 0.242676C13.3999 0.242676 13.205 0.323854 13.0373 0.486212L7.6909 5.96087L2.33792 0.486212C2.17557 0.323854 1.98344 0.242676 1.76155 0.242676C1.60461 0.242676 1.46525 0.279206 1.34348 0.352267C1.22172 0.425328 1.1243 0.524095 1.05124 0.648569C0.978181 0.773043 0.94165 0.911046 0.94165 1.06258C0.94165 1.17623 0.963298 1.28041 1.00659 1.37512C1.04989 1.46983 1.10942 1.55506 1.18519 1.63083L7.07063 7.6624C7.25464 7.84099 7.46029 7.93029 7.68759 7.93029Z" fill="#414141"/>
</svg>
