<svg width="24" height="24" viewBox="0 0 24 24" fill="none" xmlns="http://www.w3.org/2000/svg">
<circle cx="12" cy="12" r="12" fill="#EFF2F8"/>
<path d="M10.6709 11.4892H9.00316C8.77572 11.4892 8.55751 11.3993 8.39611 11.239C8.23471 11.0788 8.14323 10.8612 8.1416 10.6338V8.96605C8.1416 8.73755 8.23237 8.51841 8.39395 8.35684C8.55552 8.19526 8.77466 8.10449 9.00316 8.10449H10.6709C10.8983 8.10612 11.1159 8.1976 11.2761 8.359C11.4364 8.5204 11.5263 8.73861 11.5263 8.96605V10.6338C11.5263 10.8606 11.4362 11.0782 11.2758 11.2386C11.1153 11.3991 10.8978 11.4892 10.6709 11.4892ZM9.0647 10.5661H10.6032V9.02759H9.0647V10.5661Z" fill="#647081"/>
<path d="M15.0029 11.4892H13.329C13.1022 11.4892 12.8846 11.3991 12.7242 11.2386C12.5638 11.0782 12.4736 10.8606 12.4736 10.6338V8.96605C12.4736 8.73861 12.5636 8.5204 12.7238 8.359C12.884 8.1976 13.1016 8.10612 13.329 8.10449H15.0029C15.2304 8.10612 15.4479 8.1976 15.6082 8.359C15.7684 8.5204 15.8583 8.73861 15.8583 8.96605V10.6338C15.8583 10.8606 15.7682 11.0782 15.6078 11.2386C15.4474 11.3991 15.2298 11.4892 15.0029 11.4892ZM13.3967 10.5661H14.9352V9.02759H13.3967V10.5661Z" fill="#647081"/>
<path d="M10.6709 15.8954H9.00316C8.77466 15.8954 8.55552 15.8047 8.39395 15.6431C8.23237 15.4815 8.1416 15.2624 8.1416 15.0339V13.3661C8.14323 13.1387 8.23471 12.9212 8.39611 12.7609C8.55751 12.6007 8.77572 12.5107 9.00316 12.5107H10.6709C10.8978 12.5107 11.1153 12.6009 11.2758 12.7613C11.4362 12.9217 11.5263 13.1393 11.5263 13.3661V15.0339C11.5263 15.2613 11.4364 15.4795 11.2761 15.6409C11.1159 15.8023 10.8983 15.8938 10.6709 15.8954V15.8954ZM9.0647 14.9723H10.6032V13.4338H9.0647V14.9723Z" fill="#647081"/>
<path d="M15.0029 15.9628H13.329C13.2167 15.9628 13.1055 15.9407 13.0017 15.8977C12.8979 15.8547 12.8036 15.7917 12.7242 15.7123C12.6447 15.6328 12.5817 15.5385 12.5387 15.4348C12.4958 15.331 12.4736 15.2197 12.4736 15.1074V13.4335C12.4736 13.2067 12.5638 12.9891 12.7242 12.8287C12.8846 12.6682 13.1022 12.5781 13.329 12.5781H15.0029C15.2293 12.5797 15.4459 12.6704 15.606 12.8304C15.7661 12.9905 15.8567 13.2072 15.8583 13.4335V15.1074C15.8583 15.2197 15.8362 15.331 15.7932 15.4348C15.7502 15.5385 15.6872 15.6328 15.6078 15.7123C15.5284 15.7917 15.4341 15.8547 15.3303 15.8977C15.2265 15.9407 15.1153 15.9628 15.0029 15.9628V15.9628ZM13.3967 15.0397H14.9352V13.5012H13.3967V15.0397Z" fill="#647081"/>
<path d="M6.46155 9.69239C6.33963 9.6908 6.22316 9.64166 6.13695 9.55544C6.05073 9.46923 6.00159 9.35276 6 9.23084V6.46155C6.00159 6.33963 6.05073 6.22316 6.13695 6.13695C6.22316 6.05073 6.33963 6.00159 6.46155 6H9.23084C9.35325 6 9.47065 6.04863 9.55721 6.13518C9.64376 6.22174 9.69239 6.33914 9.69239 6.46155C9.69239 6.58396 9.64376 6.70136 9.55721 6.78791C9.47065 6.87447 9.35325 6.9231 9.23084 6.9231H6.9231V9.23084C6.9215 9.35276 6.87236 9.46923 6.78615 9.55544C6.69994 9.64166 6.58346 9.6908 6.46155 9.69239V9.69239Z" fill="#647081"/>
<path d="M17.5385 9.69239C17.4165 9.6908 17.3001 9.64166 17.2139 9.55544C17.1276 9.46923 17.0785 9.35276 17.0769 9.23084V6.9231H14.7692C14.6468 6.9231 14.5294 6.87447 14.4428 6.78791C14.3562 6.70136 14.3076 6.58396 14.3076 6.46155C14.3076 6.33914 14.3562 6.22174 14.4428 6.13518C14.5294 6.04863 14.6468 6 14.7692 6H17.5385C17.6604 6.00159 17.7768 6.05073 17.8631 6.13695C17.9493 6.22316 17.9984 6.33963 18 6.46155V9.23084C17.9984 9.35276 17.9493 9.46923 17.8631 9.55544C17.7768 9.64166 17.6604 9.6908 17.5385 9.69239Z" fill="#647081"/>
<path d="M17.5385 18H14.7692C14.6468 18 14.5294 17.9514 14.4428 17.8648C14.3562 17.7783 14.3076 17.6609 14.3076 17.5385C14.3076 17.416 14.3562 17.2987 14.4428 17.2121C14.5294 17.1255 14.6468 17.0769 14.7692 17.0769H17.0769V14.7692C17.0769 14.6468 17.1255 14.5294 17.2121 14.4428C17.2987 14.3562 17.416 14.3076 17.5385 14.3076C17.6609 14.3076 17.7783 14.3562 17.8648 14.4428C17.9514 14.5294 18 14.6468 18 14.7692V17.5385C17.9984 17.6604 17.9493 17.7768 17.8631 17.8631C17.7768 17.9493 17.6604 17.9984 17.5385 18Z" fill="#647081"/>
<path d="M9.23084 18H6.46155C6.33963 17.9984 6.22316 17.9493 6.13695 17.8631C6.05073 17.7768 6.00159 17.6604 6 17.5385V14.7692C6 14.6468 6.04863 14.5294 6.13518 14.4428C6.22174 14.3562 6.33914 14.3076 6.46155 14.3076C6.58396 14.3076 6.70136 14.3562 6.78791 14.4428C6.87447 14.5294 6.9231 14.6468 6.9231 14.7692V17.0769H9.23084C9.35325 17.0769 9.47065 17.1255 9.55721 17.2121C9.64376 17.2987 9.69239 17.416 9.69239 17.5385C9.69239 17.6609 9.64376 17.7783 9.55721 17.8648C9.47065 17.9514 9.35325 18 9.23084 18Z" fill="#647081"/>
</svg>
