<svg width="24" height="24" viewBox="0 0 24 24" fill="none" xmlns="http://www.w3.org/2000/svg">
<circle cx="12" cy="12" r="12" fill="#EFF2F8"/>
<path d="M10.6718 11.4891H9.00412C8.77668 11.4891 8.55848 11.3992 8.39708 11.2389C8.23569 11.0787 8.1442 10.8611 8.14258 10.6337V8.96603C8.14258 8.73754 8.23335 8.5184 8.39492 8.35683C8.55649 8.19526 8.77562 8.10449 9.00412 8.10449H10.6718C10.8992 8.10612 11.1168 8.1976 11.277 8.359C11.4373 8.52039 11.5272 8.7386 11.5272 8.96603V10.6337C11.5272 10.8606 11.4371 11.0782 11.2767 11.2386C11.1162 11.399 10.8987 11.4891 10.6718 11.4891ZM9.06566 10.566H10.6041V9.02757H9.06566V10.566Z" fill="#00BE00"/>
<path d="M15.0029 11.4891H13.329C13.1022 11.4891 12.8846 11.399 12.7242 11.2386C12.5638 11.0782 12.4736 10.8606 12.4736 10.6337V8.96603C12.4736 8.7386 12.5636 8.52039 12.7238 8.359C12.884 8.1976 13.1016 8.10612 13.329 8.10449H15.0029C15.2303 8.10612 15.4478 8.1976 15.6081 8.359C15.7683 8.52039 15.8583 8.7386 15.8582 8.96603V10.6337C15.8582 10.8606 15.7681 11.0782 15.6077 11.2386C15.4473 11.399 15.2297 11.4891 15.0029 11.4891ZM13.3967 10.566H14.9352V9.02757H13.3967V10.566Z" fill="#00BE00"/>
<path d="M10.6718 15.8954H9.00412C8.77562 15.8954 8.55649 15.8046 8.39492 15.643C8.23335 15.4814 8.14258 15.2623 8.14258 15.0338V13.3661C8.1442 13.1387 8.23569 12.9211 8.39708 12.7609C8.55848 12.6007 8.77668 12.5107 9.00412 12.5107H10.6718C10.8987 12.5107 11.1162 12.6009 11.2767 12.7613C11.4371 12.9217 11.5272 13.1393 11.5272 13.3661V15.0338C11.5272 15.2613 11.4373 15.4795 11.277 15.6409C11.1168 15.8022 10.8992 15.8937 10.6718 15.8954ZM9.06566 14.9723H10.6041V13.4338H9.06566V14.9723Z" fill="#00BE00"/>
<path d="M15.0029 15.9627H13.329C13.2167 15.9627 13.1055 15.9406 13.0017 15.8976C12.8979 15.8546 12.8036 15.7916 12.7242 15.7122C12.6447 15.6328 12.5817 15.5385 12.5387 15.4347C12.4958 15.3309 12.4736 15.2197 12.4736 15.1074V13.4335C12.4736 13.2066 12.5638 12.9891 12.7242 12.8287C12.8846 12.6682 13.1022 12.5781 13.329 12.5781H15.0029C15.2292 12.5797 15.4459 12.6704 15.6059 12.8304C15.766 12.9905 15.8566 13.2071 15.8582 13.4335V15.1074C15.8582 15.2197 15.8361 15.3309 15.7931 15.4347C15.7501 15.5385 15.6871 15.6328 15.6077 15.7122C15.5283 15.7916 15.434 15.8546 15.3302 15.8976C15.2264 15.9406 15.1152 15.9627 15.0029 15.9627ZM13.3967 15.0397H14.9352V13.5012H13.3967V15.0397Z" fill="#00BE00"/>
<path d="M6.46154 9.69231C6.33963 9.69071 6.22316 9.64158 6.13694 9.55536C6.05073 9.46915 6.00159 9.35268 6 9.23077V6.46154C6.00159 6.33963 6.05073 6.22316 6.13694 6.13694C6.22316 6.05073 6.33963 6.00159 6.46154 6H9.23077C9.35318 6 9.47057 6.04863 9.55713 6.13518C9.64368 6.22174 9.69231 6.33913 9.69231 6.46154C9.69231 6.58395 9.64368 6.70134 9.55713 6.7879C9.47057 6.87445 9.35318 6.92308 9.23077 6.92308H6.92308V9.23077C6.92148 9.35268 6.87235 9.46915 6.78613 9.55536C6.69992 9.64158 6.58345 9.69071 6.46154 9.69231Z" fill="#00BE00"/>
<path d="M17.5384 9.69231C17.4165 9.69071 17.3 9.64158 17.2138 9.55536C17.1276 9.46915 17.0784 9.35268 17.0768 9.23077V6.92308H14.7692C14.6467 6.92308 14.5294 6.87445 14.4428 6.7879C14.3562 6.70134 14.3076 6.58395 14.3076 6.46154C14.3076 6.33913 14.3562 6.22174 14.4428 6.13518C14.5294 6.04863 14.6467 6 14.7692 6H17.5384C17.6603 6.00159 17.7768 6.05073 17.863 6.13694C17.9492 6.22316 17.9983 6.33963 17.9999 6.46154V9.23077C17.9983 9.35268 17.9492 9.46915 17.863 9.55536C17.7768 9.64158 17.6603 9.69071 17.5384 9.69231Z" fill="#00BE00"/>
<path d="M17.5384 17.9999H14.7692C14.6467 17.9999 14.5294 17.9513 14.4428 17.8647C14.3562 17.7782 14.3076 17.6608 14.3076 17.5384C14.3076 17.416 14.3562 17.2986 14.4428 17.212C14.5294 17.1255 14.6467 17.0768 14.7692 17.0768H17.0768V14.7692C17.0768 14.6467 17.1255 14.5294 17.212 14.4428C17.2986 14.3562 17.416 14.3076 17.5384 14.3076C17.6608 14.3076 17.7782 14.3562 17.8647 14.4428C17.9513 14.5294 17.9999 14.6467 17.9999 14.7692V17.5384C17.9983 17.6603 17.9492 17.7768 17.863 17.863C17.7768 17.9492 17.6603 17.9983 17.5384 17.9999Z" fill="#00BE00"/>
<path d="M9.23077 17.9999H6.46154C6.33963 17.9983 6.22316 17.9492 6.13694 17.863C6.05073 17.7768 6.00159 17.6603 6 17.5384V14.7692C6 14.6467 6.04863 14.5294 6.13518 14.4428C6.22174 14.3562 6.33913 14.3076 6.46154 14.3076C6.58395 14.3076 6.70134 14.3562 6.7879 14.4428C6.87445 14.5294 6.92308 14.6467 6.92308 14.7692V17.0768H9.23077C9.35318 17.0768 9.47057 17.1255 9.55713 17.212C9.64368 17.2986 9.69231 17.416 9.69231 17.5384C9.69231 17.6608 9.64368 17.7782 9.55713 17.8647C9.47057 17.9513 9.35318 17.9999 9.23077 17.9999Z" fill="#00BE00"/>
</svg>
