<svg width="15" height="15" xmlns="http://www.w3.org/2000/svg">
    <path d="M7.385 14.514c.943 0 1.83-.18 2.66-.542a7.04 7.04 0 0 0 3.677-3.678 6.61 6.61 0 0 0 .538-2.655 6.61 6.61 0 0 0-.538-2.656 7.015 7.015 0 0 0-1.489-2.193 7.003 7.003 0 0 0-2.196-1.489 6.636 6.636 0 0 0-2.66-.537c-.933 0-1.815.179-2.645.537A7.003 7.003 0 0 0 2.536 2.79a7.015 7.015 0 0 0-1.489 2.193A6.61 6.61 0 0 0 .51 7.639c0 .943.18 1.828.54 2.655a7.052 7.052 0 0 0 3.682 3.678c.83.361 1.714.542 2.653.542zm0-1.267c-.774 0-1.5-.145-2.179-.435A5.623 5.623 0 0 1 3.42 11.61a5.545 5.545 0 0 1-1.63-3.972c0-.773.144-1.499.431-2.178a5.616 5.616 0 0 1 2.982-2.995 5.462 5.462 0 0 1 2.175-.435c.782 0 1.512.145 2.189.435a5.647 5.647 0 0 1 2.992 2.995c.29.68.435 1.405.435 2.179a5.383 5.383 0 0 1-.432 2.185 5.702 5.702 0 0 1-1.202 1.786 5.582 5.582 0 0 1-1.783 1.202c-.679.29-1.41.435-2.192.435zm0-4.448c.358 0 .542-.19.551-.566l.1-3.36a.587.587 0 0 0-.185-.463.664.664 0 0 0-.473-.18.665.665 0 0 0-.481.176.587.587 0 0 0-.177.46l.092 3.374c.01.372.2.559.573.559zm0 2.2c.202 0 .38-.07.53-.206a.66.66 0 0 0 .226-.51.667.667 0 0 0-.226-.515.765.765 0 0 0-.53-.206.75.75 0 0 0-.538.21.68.68 0 0 0-.22.512c0 .198.075.366.224.506.148.139.326.208.534.208z" fill="#39A7FF" fill-rule="evenodd"/>
</svg>
