<svg xmlns="http://www.w3.org/2000/svg" width="32" height="32" viewBox="0 0 32 32">
    <g fill="none" fill-rule="evenodd">
        <g>
            <g>
                <g>
                    <g>
                        <g>
                            <path fill="#00BE00" d="M0 14.667c0 8.1 6.566 14.666 14.667 14.666 8.1 0 14.666-6.566 14.666-14.666C29.333 6.567 22.767 0 14.667 0 6.567 0 0 6.566 0 14.667z" transform="translate(-858.000000, -90.000000) translate(449.000000, 90.000000) translate(409.000000, 0.000000) translate(0.000000, 0.000000) translate(1.333333, 1.333333)"/>
                            <path fill="#FFF" d="M14.667 22.667c-4.419 0-8-3.582-8-8 0-4.419 3.581-8 8-8 4.418 0 8 3.581 8 8 0 4.418-3.582 8-8 8z" transform="translate(-858.000000, -90.000000) translate(449.000000, 90.000000) translate(409.000000, 0.000000) translate(0.000000, 0.000000) translate(1.333333, 1.333333)"/>
                        </g>
                    </g>
                </g>
            </g>
        </g>
    </g>
</svg>
