<svg width="16" height="16" xmlns="http://www.w3.org/2000/svg">
    <path d="M8.01 16a.933.933 0 0 0 .691-.29.958.958 0 0 0 .285-.696V8.997h6.038a.93.93 0 0 0 .686-.296A.966.966 0 0 0 16 8a.95.95 0 0 0-.29-.696.938.938 0 0 0-.686-.29l-6.038.001V.986a.963.963 0 0 0-.285-.691.925.925 0 0 0-.69-.295.953.953 0 0 0-.707.295.955.955 0 0 0-.29.691v6.03L.986 7.013a.955.955 0 0 0-.691.29A.941.941 0 0 0 0 8c0 .271.098.505.295.701a.946.946 0 0 0 .691.295l6.028.001v6.017a.95.95 0 0 0 .29.696c.193.193.428.29.706.29z" fill="#00BE00" fill-rule="nonzero"/>
</svg>
