<svg width="18" height="18" xmlns="http://www.w3.org/2000/svg">
    <path d="M15.123 17.057c.95 0 1.666-.24 2.15-.717.485-.478.727-1.186.727-2.123V3.34c0-.937-.242-1.645-.726-2.123C16.789.739 16.072.5 15.123.5H2.877c-.95 0-1.666.237-2.15.712C.241 1.687 0 2.396 0 3.34v10.877c0 .943.242 1.652.726 2.127.485.475 1.202.713 2.151.713h12.246zm.056-1.614H2.811c-.383 0-.677-.1-.882-.301-.204-.202-.306-.504-.306-.906V5.934c0-.403.102-.704.306-.906.205-.201.499-.302.882-.302H15.18c.384 0 .68.101.887.302.208.202.311.503.311.906v8.302c0 .402-.103.704-.311.906-.208.2-.503.301-.887.301zM7.792 7.858c.158 0 .268-.028.33-.084.064-.057.095-.164.095-.321v-.528c0-.158-.031-.266-.094-.326s-.173-.09-.33-.09h-.529c-.157 0-.266.03-.325.09-.06.06-.09.168-.09.326v.528c0 .157.03.264.09.32.06.057.168.085.325.085h.528zm2.934 0c.164 0 .276-.028.335-.084.06-.057.09-.164.09-.321v-.528c0-.158-.03-.266-.09-.326s-.171-.09-.335-.09h-.528c-.157 0-.266.03-.325.09-.06.06-.09.168-.09.326v.528c0 .157.03.264.09.32.06.057.168.085.325.085h.528zm2.934 0c.164 0 .277-.028.34-.084.063-.057.094-.164.094-.321v-.528c0-.158-.031-.266-.094-.326s-.176-.09-.34-.09h-.518c-.158 0-.266.03-.326.09s-.09.168-.09.326v.528c0 .157.03.264.09.32.06.057.168.085.326.085h.518zm-8.81 2.897c.156 0 .268-.03.334-.09s.099-.168.099-.325v-.52c0-.156-.033-.263-.099-.32-.066-.057-.178-.085-.335-.085H4.33c-.157 0-.266.028-.325.085-.06.057-.09.164-.09.32v.52c0 .157.03.265.09.325s.168.09.325.09h.52zm2.942 0c.158 0 .268-.03.33-.09.064-.06.095-.168.095-.325v-.52c0-.156-.031-.263-.094-.32-.063-.057-.173-.085-.33-.085h-.529c-.157 0-.266.028-.325.085-.06.057-.09.164-.09.32v.52c0 .157.03.265.09.325s.168.09.325.09h.528zm2.934 0c.164 0 .276-.03.335-.09.06-.06.09-.168.09-.325v-.52c0-.156-.03-.263-.09-.32-.06-.057-.171-.085-.335-.085h-.528c-.157 0-.266.028-.325.085-.06.057-.09.164-.09.32v.52c0 .157.03.265.09.325s.168.09.325.09h.528zm2.934 0c.164 0 .277-.03.34-.09s.094-.168.094-.325v-.52c0-.156-.031-.263-.094-.32-.063-.057-.176-.085-.34-.085h-.518c-.158 0-.266.028-.326.085-.06.057-.09.164-.09.32v.52c0 .157.03.265.09.325s.168.09.326.09h.518zM4.85 13.65c.156 0 .268-.03.334-.09s.099-.168.099-.325v-.528c0-.158-.033-.265-.099-.321-.066-.057-.178-.085-.335-.085H4.33c-.157 0-.266.028-.325.085-.06.056-.09.163-.09.32v.529c0 .157.03.266.09.325.06.06.168.09.325.09h.52zm2.942 0c.158 0 .268-.03.33-.09.064-.06.095-.168.095-.325v-.528c0-.158-.031-.265-.094-.321-.063-.057-.173-.085-.33-.085h-.529c-.157 0-.266.028-.325.085-.06.056-.09.163-.09.32v.529c0 .157.03.266.09.325.06.06.168.09.325.09h.528zm2.934 0c.164 0 .276-.03.335-.09.06-.06.09-.168.09-.325v-.528c0-.158-.03-.265-.09-.321-.06-.057-.171-.085-.335-.085h-.528c-.157 0-.266.028-.325.085-.06.056-.09.163-.09.32v.529c0 .157.03.266.09.325.06.06.168.09.325.09h.528z" fill="#647081" fill-rule="nonzero"/>
</svg>
