<svg width="22" height="22" viewBox="0 0 22 22" xmlns="http://www.w3.org/2000/svg">
    <g fill="none" fill-rule="evenodd">
        <circle fill="#00BE00" cx="11" cy="11" r="11"/>
        <path d="m11.78 12.563 1.225 1.226s-.587-.285-1.22.349l-3.137 3.137a1.109 1.109 0 1 1-1.569-1.569l3.143-3.143a1.1 1.1 0 0 1 1.557 0zm.301 1.765c.504-.458 1.208-.255 1.346-.117l1.495 1.495a1.11 1.11 0 0 1-1.568 1.57l-2.11-2.111zm1.709-5.333s-.285.587.348 1.22l3.137 3.138a1.11 1.11 0 0 1-1.568 1.569l-3.143-3.143a1.101 1.101 0 0 1 0-1.558l1.226-1.226zm-6.955 2.248.837.838c.458.503.255 1.208.117 1.345l-.134.134-.191.191-.703.703-.108.108-.258.258-.055.055-.047.047a1.11 1.11 0 1 1-1.568-1.569l2.11-2.11zm-.542-4.165 3.143 3.143c.43.43.43 1.127 0 1.558L8.21 13.005s.285-.587-.348-1.22L4.725 8.646a1.11 1.11 0 0 1 1.568-1.569zm9.413 0a1.11 1.11 0 0 1 1.57 1.569l-2.11 2.11-.838-.838c-.458-.503-.255-1.208-.117-1.345l.435-.435.592-.593.109-.108.258-.258.054-.055zm-.784-2.353a1.11 1.11 0 0 1 0 1.569L11.78 9.437a1.1 1.1 0 0 1-1.557 0L8.996 8.21s.587.285 1.22-.349l3.138-3.137a1.109 1.109 0 0 1 1.568 0zm-7.843 0a1.11 1.11 0 0 1 1.569 0l2.11 2.11-.838.837c-.503.458-1.208.255-1.345.117l-.552-.551-.24-.241-.657-.656-.047-.047a1.11 1.11 0 0 1 0-1.57z" fill="#FFF"/>
    </g>
</svg>
