<svg width="16" height="16" xmlns="http://www.w3.org/2000/svg">
    <path d="M11.1 15.561c.489 0 .881-.141 1.178-.425.298-.283.458-.67.48-1.164l.45-9.45h.746c.152 0 .28-.052.387-.156a.523.523 0 0 0 .159-.39.507.507 0 0 0-.16-.377.533.533 0 0 0-.386-.155h-2.936v-.988c0-.488-.149-.87-.446-1.147-.297-.276-.71-.414-1.24-.414h-2.48c-.525 0-.936.138-1.233.414-.297.276-.446.659-.446 1.147v.988h-2.93a.524.524 0 0 0-.379.155.507.507 0 0 0-.159.377c0 .156.053.286.159.39a.524.524 0 0 0 .38.155h.746l.45 9.458c.022.488.182.874.48 1.157.296.284.691.425 1.184.425h5.997zM9.878 3.444H6.313v-.926a.55.55 0 0 1 .17-.421.625.625 0 0 1 .445-.16h2.328c.189 0 .34.054.453.16a.55.55 0 0 1 .169.421v.926zm1.1 11.033H5.22a.625.625 0 0 1-.466-.187.694.694 0 0 1-.197-.47l-.442-9.299h7.952l-.429 9.3a.697.697 0 0 1-.193.472.629.629 0 0 1-.47.184zm-4.81-1.085c.135 0 .24-.038.319-.114a.379.379 0 0 0 .11-.3l-.2-6.909a.383.383 0 0 0-.121-.297.429.429 0 0 0-.3-.11.45.45 0 0 0-.322.113.373.373 0 0 0-.114.3l.194 6.902a.42.42 0 0 0 .124.304c.078.074.182.11.31.11zm1.935 0a.452.452 0 0 0 .318-.114.38.38 0 0 0 .124-.294V6.076a.388.388 0 0 0-.124-.3.452.452 0 0 0-.318-.115.45.45 0 0 0-.32.114.394.394 0 0 0-.122.3v6.91c0 .12.04.217.121.293a.45.45 0 0 0 .321.114zm1.928 0a.435.435 0 0 0 .31-.11.41.41 0 0 0 .125-.298l.193-6.908a.355.355 0 0 0-.107-.3.45.45 0 0 0-.32-.115c-.12 0-.22.037-.301.11a.413.413 0 0 0-.128.305l-.194 6.901a.36.36 0 0 0 .104.301.437.437 0 0 0 .318.114z" fill="#647081" fill-rule="evenodd"/>
</svg>
