<svg width="8" height="15" viewBox="0 0 8 15" fill="none" xmlns="http://www.w3.org/2000/svg">
<path fill-rule="evenodd" clip-rule="evenodd" d="M7.93029 7.31241C7.93029 7.19335 7.90864 7.08105 7.86534 6.97552C7.82205 6.86998 7.75169 6.77663 7.65428 6.69545L1.63083 0.801886C1.47388 0.639528 1.28447 0.55835 1.06258 0.55835C0.911046 0.55835 0.773042 0.59488 0.648568 0.667941C0.524094 0.741002 0.425327 0.838415 0.352266 0.960183C0.279206 1.08195 0.242675 1.22131 0.242675 1.37825C0.242675 1.60014 0.323854 1.79497 0.486211 1.96274L5.96087 7.3091L0.486211 12.6621C0.323854 12.8244 0.242676 13.0166 0.242676 13.2384C0.242676 13.3954 0.279206 13.5347 0.352267 13.6565C0.425328 13.7783 0.524095 13.8757 0.648569 13.9488C0.773043 14.0218 0.911046 14.0583 1.06258 14.0583C1.17623 14.0583 1.28041 14.0367 1.37512 13.9934C1.46983 13.9501 1.55506 13.8906 1.63083 13.8148L7.6624 7.92937C7.84099 7.74536 7.93029 7.53971 7.93029 7.31241Z" fill="#414141"/>
</svg>
