<svg width="24" height="24" viewBox="0 0 24 24" xmlns="http://www.w3.org/2000/svg">
    <g fill="none" fill-rule="evenodd">
        <rect fill="#EFF2F7" width="24" height="24" rx="9.239"/>
        <g fill="#00BE00" fill-rule="nonzero">
            <path d="M7.852 8.86h3.63v2.86h-3.63zM15.111 9.9H19v-.54c0-.706-.594-1.28-1.323-1.28H15.11V9.9zM15.111 10.94v3.64h2.566c.73 0 1.323-.574 1.323-1.28v-2.36h-3.889z"/>
            <path d="M14.593 7.352c0-.745-.607-1.352-1.354-1.352H6.353C5.607 6 5 6.607 5 7.352v9.883c0 .745.607 1.351 1.353 1.351h6.886c.747 0 1.354-.606 1.354-1.351V7.352zm-6.75 9.642a.452.452 0 1 1 .09-.898.452.452 0 0 1-.09.898zm0-1.923a.451.451 0 1 1 .09-.898.451.451 0 0 1-.09.898zm1.517 1.474a.45.45 0 1 1 0 0zm0-1.922a.452.452 0 1 1 .737.348.452.452 0 0 1-.737-.348zm2.331 2.371a.452.452 0 1 1 .09-.899.452.452 0 0 1-.09.899zm0-1.923a.452.452 0 1 1 .09-.898.452.452 0 0 1-.09.898zm.977-2.852a.45.45 0 0 1-.451.45H7.406a.45.45 0 0 1-.451-.45V8.373a.45.45 0 0 1 .45-.45h4.812a.45.45 0 0 1 .451.45v3.846z"/>
        </g>
    </g>
</svg>
