<svg width="24" height="24" viewBox="0 0 24 24" xmlns="http://www.w3.org/2000/svg" xmlns:xlink="http://www.w3.org/1999/xlink">
    <defs>
        <path id="a" d="M0 0h14v14H0z"/>
    </defs>
    <g fill="none" fill-rule="evenodd">
        <rect fill="#EFF2F7" width="24" height="24" rx="9.239"/>
        <g transform="translate(5 5)">
            <mask id="b" fill="#fff">
                <use xlink:href="#a"/>
            </mask>
            <path d="M9.916 6.911C9.843 5.287 8.499 4.02 6.918 4.083c-1.627.067-2.9 1.417-2.834 3.005.068 1.62 1.421 2.897 2.997 2.828 1.632-.07 2.906-1.42 2.835-3.005M6.207 0h1.586c.016.008.032.018.05.022.39.102.616.356.676.75.05.32.086.642.12.963.01.094.046.141.137.174.2.073.398.156.592.245.074.035.122.025.182-.023.246-.195.495-.387.743-.58.406-.314.856-.291 1.22.066.293.287.582.578.87.87.354.36.38.808.074 1.21-.196.256-.398.508-.591.768a.188.188 0 0 0-.02.153c.08.212.166.423.262.629a.206.206 0 0 0 .13.104c.311.047.624.083.936.12.26.03.489.126.64.346.08.117.125.26.186.39v1.586c-.008.016-.018.032-.023.05-.105.402-.371.624-.777.682-.311.044-.623.082-.936.115-.094.01-.141.045-.173.136a5.48 5.48 0 0 1-.228.555c-.046.095-.047.157.023.241.196.24.384.486.572.732.305.4.278.85-.076 1.21-.287.292-.577.582-.87.87-.358.353-.81.38-1.208.073a59.06 59.06 0 0 1-.755-.588c-.06-.048-.108-.058-.182-.024-.198.092-.4.177-.604.251-.083.03-.113.073-.121.156-.026.244-.057.488-.09.732-.029.225-.045.453-.186.648-.144.2-.345.303-.573.368H6.207c-.016-.008-.032-.018-.05-.022-.39-.103-.616-.356-.677-.751-.048-.32-.085-.64-.12-.962-.01-.094-.044-.142-.135-.175a7.415 7.415 0 0 1-.58-.24c-.076-.034-.127-.035-.194.019-.249.2-.501.395-.755.588-.402.305-.852.278-1.21-.075a96.912 96.912 0 0 1-.87-.87c-.353-.358-.38-.807-.073-1.208.197-.257.399-.51.592-.77a.187.187 0 0 0 .02-.152 9.344 9.344 0 0 0-.263-.63.205.205 0 0 0-.131-.103c-.31-.047-.623-.083-.935-.12C.58 8.5.359 8.416.212 8.214.121 8.089.069 7.934 0 7.793V6.18c.009-.015.021-.029.026-.045.115-.392.381-.608.782-.661.31-.042.622-.081.934-.115.09-.01.133-.044.165-.129.074-.2.154-.398.245-.591.037-.08.026-.13-.025-.194-.199-.249-.394-.5-.588-.754-.304-.398-.273-.85.081-1.208l.86-.86c.363-.36.81-.39 1.218-.078.257.196.51.398.769.591a.173.173 0 0 0 .14.023c.221-.083.44-.174.655-.27a.177.177 0 0 0 .089-.116c.036-.238.06-.478.092-.717.032-.238.04-.482.191-.688C5.78.17 5.977.062 6.207 0" fill="#00BE00" mask="url(#b)"/>
        </g>
    </g>
</svg>
