<svg width="24" height="24" xmlns="http://www.w3.org/2000/svg">
    <path d="m13.109 14.34 1.928 1.929s-.923-.449-1.92.548l-4.934 4.935a1.745 1.745 0 1 1-2.468-2.468l4.944-4.944a1.731 1.731 0 0 1 2.45 0zm.475 2.776c.792-.72 1.9-.4 2.116-.185l.228.228.45.45.26.26 1.271 1.271.106.106.038.038a1.746 1.746 0 0 1-2.468 2.468l-3.318-3.32zm2.687-8.388-.002.005-.016.04c-.074.197-.3 1.008.566 1.875l4.935 4.935a1.745 1.745 0 1 1-2.467 2.467l-4.944-4.944a1.732 1.732 0 0 1 0-2.45l1.928-1.928zM5.33 12.264l1.317 1.317c.72.792.4 1.9.184 2.117l-.227.227-.21.21-1.61 1.61-.162.162-.143.143a1.745 1.745 0 0 1-2.468-2.467l3.319-3.319zm-.852-6.552 4.945 4.944a1.732 1.732 0 0 1 0 2.45l-1.93 1.929.003-.005.017-.04c.073-.197.3-1.009-.567-1.875L2.011 8.18a1.745 1.745 0 1 1 2.467-2.468zm14.808 0a1.746 1.746 0 0 1 2.468 2.468L18.435 11.5l-1.317-1.318c-.72-.792-.4-1.9-.184-2.116zm-1.233-3.7a1.745 1.745 0 0 1 0 2.466l-4.944 4.945a1.731 1.731 0 0 1-2.45 0l-1.928-1.93.005.003.04.017c.197.073 1.008.3 1.874-.567l4.935-4.935a1.745 1.745 0 0 1 2.468 0zM5.715 2.01a1.746 1.746 0 0 1 2.467 0l3.319 3.32-1.317 1.316c-.792.72-1.9.4-2.116.184l-.677-.677-.53-.53-.267-.266-.88-.88a1.746 1.746 0 0 1 0-2.467z" fill="#00BE00" fill-rule="evenodd"/>
</svg>
