<svg width="27" height="26" viewBox="0 0 27 26" xmlns="http://www.w3.org/2000/svg">
    <g transform="translate(.559 .23)" fill="none" fill-rule="evenodd">
        <rect fill="#EC2A2A" width="25.634" height="25.644" rx="12.817"/>
        <path d="M15.305 18.954c.445 0 .803-.13 1.074-.388.27-.258.417-.612.438-1.061l.41-8.622h.68a.486.486 0 0 0 .352-.141.478.478 0 0 0 .145-.357.463.463 0 0 0-.145-.343.486.486 0 0 0-.352-.142h-2.678V7c0-.445-.135-.794-.406-1.046s-.648-.378-1.131-.378H11.43c-.478 0-.853.126-1.124.378-.271.252-.406.6-.406 1.046v.902H7.227a.478.478 0 0 0-.346.141.463.463 0 0 0-.145.343c0 .143.048.262.145.357a.478.478 0 0 0 .346.141h.68l.41 8.628c.021.445.167.797.438 1.055.271.259.631.388 1.08.388h5.469zM14.189 7.901h-3.25v-.845c0-.16.051-.288.154-.385a.57.57 0 0 1 .407-.145h2.123c.172 0 .31.049.412.145a.503.503 0 0 1 .155.385V7.9zm1.002 10.064H9.944a.57.57 0 0 1-.426-.17.633.633 0 0 1-.18-.43l-.402-8.482h7.25l-.39 8.483a.636.636 0 0 1-.176.432.573.573 0 0 1-.429.167zm-4.384-.99a.398.398 0 0 0 .29-.104.346.346 0 0 0 .1-.274l-.182-6.302a.35.35 0 0 0-.11-.271.39.39 0 0 0-.275-.1.41.41 0 0 0-.293.103.34.34 0 0 0-.104.274l.177 6.296c.004.118.042.21.113.277.072.068.166.101.284.101zm1.764 0a.412.412 0 0 0 .29-.104.347.347 0 0 0 .113-.268v-6.302a.354.354 0 0 0-.114-.274.412.412 0 0 0-.29-.104.41.41 0 0 0-.292.104.36.36 0 0 0-.11.274v6.302c0 .11.036.199.11.268a.41.41 0 0 0 .293.104zm1.757 0a.397.397 0 0 0 .284-.1.375.375 0 0 0 .113-.272l.177-6.302a.324.324 0 0 0-.098-.274.41.41 0 0 0-.293-.104.39.39 0 0 0-.274.101.376.376 0 0 0-.117.277l-.176 6.296a.328.328 0 0 0 .094.274c.072.07.168.104.29.104z" fill="#FFF" fill-rule="nonzero"/>
    </g>
</svg>
