<svg width="24" height="25" viewBox="0 0 24 25" xmlns="http://www.w3.org/2000/svg" xmlns:xlink="http://www.w3.org/1999/xlink">
    <defs>
        <path id="gu0gwc738a" d="M0 0h24v24H0z"/>
        <path id="wehlv9sdhb" d="M0 0h24v24H0z"/>
    </defs>
    <g transform="translate(0 .812)" fill="none" fill-rule="evenodd">
        <mask id="klzx0261gc" fill="#fff">
            <use xlink:href="#wehlv9sdhb"/>
        </mask>
        <path d="M7.779 2.841a1 1 0 1 0 0-2 1 1 0 0 0 0 2M4.221 5.207a1 1 0 1 0 0-2 1 1 0 0 0 0 2M1.827 8.784a1 1 0 1 0 0-2 1 1 0 0 0 0 2M10.277 11H8a1 1 0 0 0 0 2h2.277A1.994 1.994 0 1 0 13 10.277V7a1 1 0 1 0-2 0v3.277a2 2 0 0 0-.723.723M24 12c0 6.627-5.373 12-12 12S0 18.627 0 12a1 1 0 1 1 2 0c0 5.523 4.477 10 10 10s10-4.477 10-10S17.523 2 12 2a1 1 0 0 1 0-2c6.624.007 11.993 5.376 12 12" fill="#39A7FF" mask="url(#klzx0261gc)"/>
    </g>
</svg>
