<svg width="24" height="24" viewBox="0 0 24 24" xmlns="http://www.w3.org/2000/svg">
    <path d="M11.815 23.222c1.51 0 2.928-.289 4.256-.866a11.265 11.265 0 0 0 5.884-5.885c.574-1.324.86-2.74.86-4.25 0-1.508-.286-2.925-.86-4.249a11.224 11.224 0 0 0-2.382-3.508 11.205 11.205 0 0 0-3.514-2.382 10.618 10.618 0 0 0-4.255-.86c-1.494 0-2.905.286-4.232.86a11.205 11.205 0 0 0-3.514 2.382 11.224 11.224 0 0 0-2.382 3.508 10.577 10.577 0 0 0-.86 4.25c0 1.509.288 2.925.865 4.25a11.284 11.284 0 0 0 2.382 3.502 11.265 11.265 0 0 0 3.509 2.382 10.53 10.53 0 0 0 4.243.866zm0-2.026A8.78 8.78 0 0 1 8.33 20.5a8.997 8.997 0 0 1-2.858-1.924 8.92 8.92 0 0 1-1.918-2.857 8.872 8.872 0 0 1-.69-3.497c0-1.238.23-2.4.69-3.486a8.986 8.986 0 0 1 4.77-4.793 8.74 8.74 0 0 1 3.48-.696c1.253 0 2.42.232 3.503.696a9.035 9.035 0 0 1 4.787 4.793 8.78 8.78 0 0 1 .696 3.486 8.613 8.613 0 0 1-.69 3.497 9.124 9.124 0 0 1-1.924 2.857 8.931 8.931 0 0 1-2.852 1.924 8.838 8.838 0 0 1-3.509.696zm0-7.118c.574 0 .868-.302.883-.906l.159-5.375a.94.94 0 0 0-.295-.741 1.062 1.062 0 0 0-.758-.29c-.317 0-.573.095-.77.284-.196.188-.29.434-.282.735l.147 5.399c.015.596.32.894.916.894zm0 3.52c.325 0 .608-.11.85-.329.24-.219.361-.49.361-.815 0-.332-.12-.607-.362-.826a1.224 1.224 0 0 0-.849-.328 1.2 1.2 0 0 0-.86.334c-.234.222-.35.496-.35.82 0 .317.118.587.356.81.238.222.522.333.854.333z" fill="#EC2A2A" fill-rule="evenodd"/>
</svg>
