<svg width="18" height="16" viewBox="0 0 18 16" xmlns="http://www.w3.org/2000/svg">
    <path d="m17.833 10.802.02-.026.023-.03.02-.03.017-.029.016-.032.015-.03.012-.033.012-.033.009-.033.009-.035.006-.037.004-.031a.676.676 0 0 0 .004-.07v-.001a.672.672 0 0 0-.004-.07c0-.01-.003-.02-.004-.03l-.006-.038-.01-.035c-.002-.01-.004-.022-.008-.032-.003-.012-.008-.023-.012-.034l-.012-.032-.015-.03-.016-.033-.017-.028-.02-.031-.023-.03-.02-.026a.717.717 0 0 0-.046-.05c-.001 0-.002 0-.002-.002l-1.84-1.772a.755.755 0 0 0-1.04 0 .691.691 0 0 0 0 1.002l.583.563h-2.245V5.909a.69.69 0 0 0-.167-.449l-.003-.003a.727.727 0 0 0-.049-.052c-.006-.006-.012-.013-.02-.019L7.633.208a.726.726 0 0 0-.048-.042L7.57.154a.727.727 0 0 0-.094-.061l-.016-.01A.73.73 0 0 0 7.404.06l-.023-.01a.73.73 0 0 0-.105-.03l-.02-.005a.745.745 0 0 0-.062-.01h-.02A.764.764 0 0 0 7.124 0L7.112 0H.736A.723.723 0 0 0 0 .71v14.18c0 .393.33.71.736.71h11.77a.723.723 0 0 0 .737-.71v-3.828h2.245l-.583.562a.691.691 0 0 0 0 1.003.748.748 0 0 0 .52.208c.188 0 .377-.07.52-.208l1.84-1.773a.718.718 0 0 0 .048-.052zM7.847 2.421 10.731 5.2H7.847V2.421zm3.924 11.76h-10.3V1.419h4.905V5.91c0 .392.33.71.736.71h4.66v3.025H8.582a.723.723 0 0 0-.736.709c0 .391.33.709.736.709h3.188v3.12z" fill="#39A7FF" fill-rule="nonzero"/>
</svg>
